<?xml version="1.0" encoding="utf-8"?>
<!-- Generator: Adobe Illustrator 17.0.0, SVG Export Plug-In . SVG Version: 6.00 Build 0)  -->
<!DOCTYPE svg PUBLIC "-//W3C//DTD SVG 1.1//EN" "http://www.w3.org/Graphics/SVG/1.1/DTD/svg11.dtd">
<svg version="1.1" id="Ebene_1" xmlns="http://www.w3.org/2000/svg" xmlns:xlink="http://www.w3.org/1999/xlink" x="0px" y="0px"
	 width="532.667px" height="145.333px" viewBox="0 0 532.667 145.333" enable-background="new 0 0 532.667 145.333"
	 xml:space="preserve">
<g>
	<g>
		<path fill="#575757" d="M47.373,106.14c-8.279,0-15.051-1.104-20.318-3.316c-5.269-2.208-9.382-5.432-12.346-9.664
			c-2.963-4.233-4.987-9.405-6.067-15.521c-1.082-6.113-1.623-13.074-1.623-20.883c0-7.711,0.54-14.625,1.623-20.74
			c1.081-6.114,3.104-11.288,6.067-15.522c2.963-4.232,7.077-7.477,12.346-9.735c5.267-2.258,12.039-3.386,20.318-3.386h25.255
			v19.754H58.519c-5.269,0-9.595,0.423-12.98,1.269c-3.386,0.847-6.045,2.377-7.972,4.586c-1.929,2.211-3.269,5.221-4.021,9.03
			c-0.754,3.81-1.129,8.726-1.129,14.744c0,6.021,0.375,10.936,1.129,14.744c0.752,3.811,2.092,6.822,4.021,9.031
			c1.927,2.21,4.586,3.739,7.972,4.585c3.386,0.847,7.711,1.27,12.98,1.27H74.04v19.754H47.373z"/>
		<path fill="#575757" d="M82.222,90.921h30.193c1.035,0,2.068-0.223,3.104-0.674c1.034-0.45,1.552-1.44,1.552-2.971
			c0-2.156-1.129-3.888-3.386-5.193c-2.257-1.306-4.656-2.497-7.196-3.576l-8.184-3.472c-3.293-1.423-6.045-2.78-8.254-4.072
			c-2.211-1.289-3.95-2.736-5.221-4.339c-1.27-1.601-2.164-3.424-2.68-5.473c-0.519-2.046-0.777-4.539-0.777-7.476
			c0-6.586,1.67-11.28,5.01-14.084c3.338-2.804,8.536-4.205,15.591-4.205h35.273v15.219h-28.782c-1.602,0-3.034,0.158-4.305,0.474
			c-1.269,0.316-1.904,1.285-1.904,2.904c0,2.074,0.611,3.56,1.834,4.46c1.222,0.902,3.056,1.895,5.503,2.975l10.44,4.539
			c3.197,1.425,6.043,2.737,8.537,3.938c2.491,1.201,4.585,2.582,6.278,4.139c1.693,1.558,2.985,3.471,3.88,5.74
			c0.894,2.27,1.341,5.186,1.341,8.744c0,6.053-1.481,10.502-4.444,13.349c-2.963,2.85-7.831,4.272-14.604,4.272H82.222V90.921z"/>
		<path fill="#575757" d="M212.452,55.91c3.197,0.473,5.808,1.318,7.831,2.541c2.023,1.223,3.598,2.821,4.727,4.797
			c1.129,1.975,1.904,4.256,2.328,6.843c0.423,2.588,0.635,5.48,0.635,8.678c0,4.232-0.33,8.019-0.987,11.357
			c-0.659,3.341-1.858,6.208-3.598,8.606c-1.742,2.399-4.186,4.233-7.337,5.503c-3.153,1.271-7.221,1.905-12.205,1.905h-37.532
			c-4.608,0-8.253-1.175-10.935-3.527c-2.681-2.35-4.02-6.208-4.02-11.57V22.612c0-5.362,1.34-9.242,4.02-11.641
			c2.682-2.398,6.326-3.598,10.935-3.598h36.121c8.559,0,14.649,2.211,18.272,6.631c3.619,4.423,5.432,11.336,5.432,20.741
			c0,2.54-0.212,4.963-0.635,7.267c-0.424,2.307-1.153,4.374-2.188,6.208c-1.036,1.835-2.423,3.364-4.162,4.585
			c-1.742,1.225-3.975,2.071-6.702,2.541V55.91z M175.344,46.879h15.802c3.48,0,5.948-0.74,7.408-2.227
			c1.457-1.482,2.186-4.173,2.186-8.071c0-3.524-0.73-6.075-2.186-7.654c-1.46-1.575-3.975-2.365-7.549-2.365h-9.312
			c-2.447,0-4.116,0.441-5.009,1.323c-0.895,0.881-1.34,2.529-1.34,4.94V46.879z M175.344,79.987c0,2.786,0.469,4.643,1.41,5.571
			c0.938,0.931,2.822,1.393,5.644,1.393h8.889c3.857,0,6.702-0.811,8.537-2.436c1.834-1.625,2.752-4.388,2.752-8.289
			c0-3.899-0.896-6.707-2.682-8.427c-1.787-1.718-4.468-2.577-8.042-2.577h-16.508V79.987z"/>
		<path fill="#575757" d="M292.568,77.179c1.468-0.779,2.655-1.873,3.533-3.255c0.856-1.355,1.473-2.928,1.831-4.675
			c0.354-1.723,0.531-3.618,0.531-5.634c0-6.001-0.599-10.905-1.779-14.576c-1.198-3.727-3.074-6.637-5.576-8.647
			c-2.492-2.003-5.703-3.354-9.549-4.016c-3.778-0.65-8.328-0.981-13.522-0.981c-6.323,0-11.56,0.485-15.57,1.442
			c-4.085,0.979-7.312,2.832-9.59,5.512c-2.264,2.663-3.835,6.359-4.673,10.981c-0.823,4.541-1.241,10.443-1.241,17.547
			c0,6.312,0.395,11.756,1.177,16.185c0.792,4.483,2.224,8.167,4.256,10.947c2.051,2.809,4.848,4.887,8.315,6.175
			c3.417,1.271,7.807,1.916,13.048,1.916h32.37V90.118h-24.33c-4.985,0-8.456-1.056-10.315-3.138
			c-1.783-1.992-2.73-4.893-2.822-8.629H287.1C289.267,78.351,291.108,77.956,292.568,77.179z M268.037,51.379
			c2.782,0,4.949,0.584,6.44,1.736c1.438,1.115,2.168,3.354,2.168,6.652c0,0.771-0.162,1.584-0.479,2.415
			c-0.308,0.795-1.628,0.962-2.681,0.962h-14.826c0.052-4.486,0.708-7.595,1.948-9.243
			C261.866,52.228,264.365,51.379,268.037,51.379z"/>
	</g>
	<g>
		<path d="M151.358,114.402h2.607v19.759h-2.607V114.402z"/>
		<path d="M166.399,114.129c1.373,0,2.634,0.164,4.034,0.547c0.904,0.248,1.152,0.658,1.152,1.21c0,0.602-0.22,1.123-0.521,1.617
			c-1.455-0.795-3.074-1.206-4.585-1.206c-3.322,0-5.516,2.358-5.516,7.957c0,5.57,2.193,8.014,5.516,8.014
			c1.565,0,3.376-0.466,4.831-1.264c0.301,0.468,0.52,0.989,0.52,1.592c0,0.576-0.245,0.961-1.151,1.208
			c-1.398,0.411-2.799,0.631-4.252,0.631c-4.886,0-8.125-3.128-8.125-10.181C158.302,117.174,161.622,114.129,166.399,114.129z"/>
		<path d="M182.759,116.654v17.507h-2.607v-17.507h-6.529v-2.252h15.641v2.252H182.759z"/>
		<path d="M196.38,134.16c0.494-7.93,2.991-15.614,6.586-19.759h2.36c3.567,4.145,6.12,11.829,6.558,19.759h-2.716
			c-0.109-1.675-0.275-3.32-0.494-4.913h-9.084c-0.219,1.593-0.411,3.238-0.495,4.913H196.38z M204.145,116.517
			c-1.975,2.881-3.32,6.447-4.143,10.482h8.26C207.438,122.964,206.093,119.398,204.145,116.517z"/>
		<path d="M218.092,120.33v9.192c0,1.481,0.55,2.69,2.445,2.69c1.37,0,2.58-0.686,3.292-1.646c0.301-0.386,0.492-0.908,0.492-1.539
			v-8.697h2.471v13.83h-1.81l-0.44-2.058c-1.235,1.482-3.046,2.278-4.666,2.278c-2.99,0-4.254-1.73-4.254-4.392v-9.659H218.092z"/>
		<path d="M235.798,121.921c-1.672,0-2.468,0.934-2.468,1.977c0,1.563,1.673,2.004,3.375,2.386c2.168,0.495,4.336,1.4,4.336,4.091
			c0,2.359-1.564,4.061-5.188,4.061c-1.617,0-2.8-0.193-3.896-0.549c-0.712-0.248-0.989-0.549-0.989-1.152
			c0-0.466,0.221-1.043,0.521-1.398c1.564,0.795,3.158,1.179,4.529,1.179c1.73,0,2.662-0.657,2.662-2.058
			c0-1.592-1.755-2.031-3.486-2.415c-2.168-0.495-4.227-1.291-4.227-3.952c0-2.058,1.619-4.033,5.188-4.033
			c1.234,0,2.168,0.137,3.24,0.465c0.738,0.221,0.96,0.578,0.96,1.126c0,0.495-0.194,1.017-0.522,1.344
			C238.462,122.279,237.117,121.921,235.798,121.921z"/>
		<path d="M251.746,134.381c-1.729,0-3.264-0.824-4.361-2.113l-0.387,1.893h-1.81v-20.582h2.471v8.481
			c1.016-1.206,2.66-1.975,4.196-1.975c2.8,0,5.216,1.702,5.216,7.16C257.072,132.679,254.576,134.381,251.746,134.381z
			 M251.225,122.059c-1.316,0-2.47,0.712-3.128,1.729c-0.218,0.328-0.466,0.879-0.466,1.921v3.046c0,1.042,0.22,1.619,0.576,2.113
			c0.797,1.069,1.757,1.536,2.991,1.536c1.7,0,3.294-0.852,3.294-5.16C254.493,122.91,253.008,122.059,251.225,122.059z"/>
		<path d="M261.111,115.886c0-1.125,0.22-1.537,1.535-1.537c1.346,0,1.622,0.355,1.622,1.537c0,1.151-0.276,1.509-1.622,1.509
			C261.33,117.395,261.111,117.037,261.111,115.886z M261.441,134.16v-13.83h2.47v13.83H261.441z"/>
		<path d="M269.043,134.16v-20.582h2.471v20.582H269.043z"/>
		<path d="M281.205,120.084c1.51,0,3.075,0.712,4.089,1.837v-8.343h2.47v20.582h-1.785l-0.438-1.922
			c-1.127,1.374-2.8,2.143-4.392,2.143c-2.909,0-5.268-1.702-5.268-7.137C275.881,121.812,278.295,120.084,281.205,120.084z
			 M281.725,132.405c1.345,0,2.471-0.742,3.129-1.73c0.221-0.3,0.467-0.877,0.467-1.919v-3.046c0-1.042-0.246-1.593-0.467-1.921
			c-0.658-1.018-1.784-1.729-3.129-1.729c-1.755,0-3.235,0.851-3.235,5.185C278.49,131.553,279.97,132.405,281.725,132.405z"/>
		<path d="M295.371,120.33v9.192c0,1.481,0.549,2.69,2.44,2.69c1.373,0,2.58-0.686,3.292-1.646c0.305-0.386,0.496-0.908,0.496-1.539
			v-8.697h2.473v13.83h-1.816l-0.438-2.058c-1.235,1.482-3.046,2.278-4.665,2.278c-2.991,0-4.252-1.73-4.252-4.392v-9.659H295.371z"
			/>
		<path d="M317.961,134.16v-9.221c0-1.481-0.549-2.661-2.414-2.661c-1.375,0-2.638,0.686-3.377,1.646
			c-0.302,0.386-0.495,0.907-0.495,1.511v8.725h-2.47v-13.83h1.813l0.438,2.085c1.236-1.508,3.102-2.306,4.722-2.306
			c3.018,0,4.277,1.702,4.277,4.365v9.686H317.961z"/>
		<path d="M329.987,120.084c1.728,0,3.265,0.823,4.365,2.139l0.411-1.892h1.782v13.995c0,3.621-1.479,6.559-6.338,6.559
			c-1.207,0-2.8-0.22-3.924-0.632c-0.66-0.247-0.852-0.521-0.852-1.098c0-0.523,0.139-1.069,0.411-1.508
			c1.289,0.658,2.937,1.097,4.197,1.097c3.075,0,4.034-1.729,4.034-4.227v-2.031c-1.015,1.182-2.605,1.896-4.197,1.896
			c-2.799,0-5.214-1.676-5.214-7.137C324.663,121.812,327.16,120.084,329.987,120.084z M333.637,130.674
			c0.219-0.3,0.466-0.877,0.466-1.919v-3.046c0-1.042-0.191-1.593-0.574-2.086c-0.799-1.07-1.757-1.564-2.993-1.564
			c-1.673,0-3.267,0.878-3.267,5.159c0,4.335,1.484,5.187,3.241,5.187C331.854,132.405,332.979,131.662,333.637,130.674z"/>
		<path d="M345.554,121.921c-1.677,0-2.47,0.934-2.47,1.977c0,1.563,1.672,2.004,3.373,2.386c2.168,0.495,4.336,1.4,4.336,4.091
			c0,2.359-1.565,4.061-5.187,4.061c-1.617,0-2.8-0.193-3.896-0.549c-0.714-0.248-0.989-0.549-0.989-1.152
			c0-0.466,0.221-1.043,0.522-1.398c1.562,0.795,3.156,1.179,4.529,1.179c1.728,0,2.661-0.657,2.661-2.058
			c0-1.592-1.757-2.031-3.484-2.415c-2.171-0.495-4.229-1.291-4.229-3.952c0-2.058,1.62-4.033,5.186-4.033
			c1.233,0,2.167,0.137,3.239,0.465c0.741,0.221,0.961,0.578,0.961,1.126c0,0.495-0.193,1.017-0.521,1.344
			C348.213,122.279,346.869,121.921,345.554,121.921z"/>
		<path d="M354.064,120.33h9.906l0.137,1.838c-3.374,2.523-6.337,6.477-7.849,9.962h7.712v2.03h-10.1l-0.163-1.535
			c1.372-3.459,3.978-7.355,7.436-10.265h-7.08V120.33z"/>
		<path d="M369.929,127.904c0.22,3.704,1.977,4.475,4.282,4.475c1.316,0,2.608-0.358,4.088-1.099
			c0.248,0.467,0.382,0.905,0.382,1.399c0,0.577-0.162,0.823-0.846,1.097c-1.073,0.411-2.361,0.632-3.763,0.632
			c-3.842,0-6.751-1.756-6.751-7.217c0-5.132,2.746-7.106,6.202-7.106c3.622,0,5.487,1.728,5.487,4.226
			c0,2.744-1.865,3.979-5.732,3.979C372.317,128.288,371.054,128.15,369.929,127.904z M369.929,126.394
			c1.1,0.165,2.033,0.248,2.771,0.248c2.747,0,3.79-0.74,3.79-2.417c0-1.454-1.043-2.276-2.966-2.276
			C371.632,121.949,370.119,122.882,369.929,126.394z"/>
		<path d="M392.137,134.16v-9.221c0-1.481-0.55-2.661-2.416-2.661c-1.369,0-2.633,0.686-3.375,1.646
			c-0.301,0.386-0.491,0.907-0.491,1.511v8.725h-2.472v-13.83h1.811l0.439,2.085c1.234-1.508,3.102-2.306,4.718-2.306
			c3.02,0,4.285,1.702,4.285,4.365v9.686H392.137z"/>
		<path d="M398.208,120.688l2.086-0.303l0.547-3.239h1.865v3.185h4.202v1.867h-4.202v7.709c0,1.812,0.714,2.416,2.087,2.416
			c0.575,0,1.153-0.164,2.005-0.576c0.244,0.384,0.354,0.823,0.354,1.206c0,0.576-0.163,0.877-0.852,1.098
			c-0.628,0.191-1.369,0.331-2.278,0.331c-2.139,0-3.812-0.879-3.812-3.898v-8.286h-2.002V120.688z"/>
		<path d="M417.23,122.47c-1.482,0-2.608,0.494-3.432,1.454c-0.329,0.356-0.492,0.907-0.492,1.511v8.725h-2.47v-13.83h1.81
			l0.44,2.058c1.207-1.48,3.212-2.278,4.719-2.278c0.8,0,1.073,0.387,1.073,1.153c0,0.494-0.083,0.879-0.25,1.316
			C418.134,122.497,417.669,122.47,417.23,122.47z"/>
		<path d="M425.053,120.33v9.192c0,1.481,0.551,2.69,2.446,2.69c1.368,0,2.58-0.686,3.292-1.646
			c0.301-0.386,0.492-0.908,0.492-1.539v-8.697h2.47v13.83h-1.809l-0.44-2.058c-1.236,1.482-3.048,2.278-4.666,2.278
			c-2.99,0-4.254-1.73-4.254-4.392v-9.659H425.053z"/>
		<path d="M447.095,134.16v-9.221c0-1.481-0.522-2.661-2.221-2.661c-1.016,0-2.087,0.492-3.02,1.646
			c-0.302,0.386-0.493,0.907-0.493,1.511v8.725h-2.471v-13.83h1.81l0.441,2.058c1.182-1.48,2.99-2.278,4.363-2.278
			c2.192,0,3.292,1.07,3.757,2.334c1.182-1.51,3.049-2.334,4.446-2.334c2.828,0,4.061,1.702,4.061,4.365v9.686h-2.496v-9.221
			c0-1.481-0.494-2.661-2.196-2.661c-1.016,0-2.111,0.467-3.045,1.646c-0.301,0.356-0.468,0.907-0.468,1.511v8.725H447.095z"/>
		<path d="M470.46,114.402h6.039c3.895,0,6.311,1.62,6.311,4.885c0,2.278-1.483,3.815-3.46,4.392
			c2.417,0.438,4.503,2.194,4.503,5.104c0,3.541-2.688,5.379-6.915,5.379h-6.478V114.402z M473.068,122.991h3.072
			c2.607,0,4.033-1.398,4.033-3.32c0-2.306-1.453-3.128-3.947-3.128h-3.158V122.991z M473.068,132.02h3.842
			c2.608,0,4.256-1.016,4.256-3.43c0-2.388-1.757-3.704-4.447-3.704h-3.65V132.02z"/>
		<path d="M489.839,127.904c0.221,3.704,1.977,4.475,4.282,4.475c1.317,0,2.608-0.358,4.089-1.099
			c0.248,0.467,0.386,0.905,0.386,1.399c0,0.577-0.166,0.823-0.852,1.097c-1.071,0.411-2.357,0.632-3.762,0.632
			c-3.839,0-6.746-1.756-6.746-7.217c0-5.132,2.741-7.106,6.201-7.106c3.622,0,5.488,1.728,5.488,4.226
			c0,2.744-1.866,3.979-5.737,3.979C492.228,128.288,490.968,128.15,489.839,127.904z M489.839,126.394
			c1.101,0.165,2.034,0.248,2.775,0.248c2.742,0,3.785-0.74,3.785-2.417c0-1.454-1.043-2.276-2.962-2.276
			C491.543,121.949,490.035,122.882,489.839,126.394z"/>
		<path d="M509.688,122.47c-1.482,0-2.608,0.494-3.43,1.454c-0.331,0.356-0.494,0.907-0.494,1.511v8.725h-2.469v-13.83h1.809
			l0.44,2.058c1.205-1.48,3.21-2.278,4.718-2.278c0.799,0,1.072,0.387,1.072,1.153c0,0.494-0.081,0.879-0.249,1.316
			C510.593,122.497,510.128,122.47,509.688,122.47z"/>
		<path d="M523.796,134.16v-9.221c0-1.481-0.547-2.661-2.414-2.661c-1.373,0-2.636,0.686-3.373,1.646
			c-0.306,0.386-0.498,0.907-0.498,1.511v8.725h-2.469v-13.83h1.812l0.438,2.085c1.234-1.508,3.101-2.306,4.723-2.306
			c3.019,0,4.278,1.702,4.278,4.365v9.686H523.796z"/>
	</g>
	<rect x="81.209" y="7.373" fill-rule="evenodd" clip-rule="evenodd" fill="#FFED00" width="56.04" height="19.754"/>
	<rect x="81.209" y="114.4" fill-rule="evenodd" clip-rule="evenodd" width="56.04" height="19.754"/>
	<rect x="239.693" y="7.373" fill-rule="evenodd" clip-rule="evenodd" fill="#E30613" width="56.04" height="19.754"/>
</g>
</svg>
